<svg xmlns="http://www.w3.org/2000/svg" xmlns:xlink="http://www.w3.org/1999/xlink" width="50" zoomAndPan="magnify" viewBox="0 0 37.5 37.499999" height="50" preserveAspectRatio="xMidYMid meet" version="1.0"><defs><clipPath id="d57fbd1ba6"><path d="M 24 6.925781 L 31.035156 6.925781 L 31.035156 18 L 24 18 Z M 24 6.925781 " clip-rule="nonzero"/></clipPath><clipPath id="e7f8119028"><path d="M 24 19 L 31.035156 19 L 31.035156 29.871094 L 24 29.871094 Z M 24 19 " clip-rule="nonzero"/></clipPath><clipPath id="60856d13a8"><path d="M 5.867188 11 L 17 11 L 17 18 L 5.867188 18 Z M 5.867188 11 " clip-rule="nonzero"/></clipPath><clipPath id="1725f92cd2"><path d="M 5.867188 11 L 26 11 L 26 26 L 5.867188 26 Z M 5.867188 11 " clip-rule="nonzero"/></clipPath></defs><g clip-path="url(#d57fbd1ba6)"><path fill="#ffffff" d="M 24.8125 17.449219 L 24.8125 6.925781 L 31.125 12.1875 Z M 24.8125 17.449219 " fill-opacity="1" fill-rule="nonzero"/></g><g clip-path="url(#e7f8119028)"><path fill="#ffffff" d="M 24.8125 30.078125 L 24.8125 19.554688 L 31.125 24.816406 Z M 24.8125 30.078125 " fill-opacity="1" fill-rule="nonzero"/></g><g clip-path="url(#60856d13a8)"><path fill="#ffffff" d="M 14.917969 17.34375 C 15.339844 16.820312 15.867188 16.292969 16.289062 15.765625 C 13.761719 13.242188 10.605469 11.136719 5.867188 11.136719 L 5.867188 13.242188 C 9.972656 13.242188 12.605469 15.03125 14.917969 17.34375 Z M 14.917969 17.34375 " fill-opacity="1" fill-rule="nonzero"/></g><path fill="#ffffff" d="M 19.761719 19.765625 C 19.339844 20.292969 18.8125 20.820312 18.390625 21.34375 C 20.496094 23.765625 22.707031 25.871094 25.863281 25.871094 L 25.863281 23.765625 C 23.445312 23.765625 21.65625 21.976562 19.761719 19.765625 Z M 19.761719 19.765625 " fill-opacity="1" fill-rule="nonzero"/><g clip-path="url(#1725f92cd2)"><path fill="#ffffff" d="M 17.445312 16.820312 C 14.5 20.1875 11.550781 23.765625 5.867188 23.765625 L 5.867188 25.871094 C 12.5 25.871094 16.183594 21.554688 19.023438 18.1875 C 21.234375 15.554688 23.234375 13.242188 25.863281 13.242188 L 25.863281 11.136719 C 22.179688 11.136719 19.867188 13.871094 17.445312 16.820312 Z M 17.445312 16.820312 " fill-opacity="1" fill-rule="nonzero"/></g></svg>