<svg xmlns="http://www.w3.org/2000/svg" xmlns:xlink="http://www.w3.org/1999/xlink" width="50" zoomAndPan="magnify" viewBox="0 0 37.5 37.499999" height="50" preserveAspectRatio="xMidYMid meet" version="1.0"><defs><clipPath id="882d286b1e"><path d="M 0 0 L 37.007812 0 L 37.007812 37.007812 L 0 37.007812 Z M 0 0 " clip-rule="nonzero"/></clipPath><clipPath id="0313745e34"><path d="M 9.695312 9.695312 L 27.457031 9.695312 L 27.457031 27.457031 L 9.695312 27.457031 Z M 9.695312 9.695312 " clip-rule="nonzero"/></clipPath></defs><g clip-path="url(#882d286b1e)"><path fill="#ffffff" d="M 0 0 L 37.007812 0 L 37.007812 37.007812 L 0 37.007812 Z M 0 0 " fill-opacity="1" fill-rule="nonzero"/><path fill="#000000" d="M 0 0 L 37.007812 0 L 37.007812 37.007812 L 0 37.007812 Z M 0 0 " fill-opacity="1" fill-rule="nonzero"/></g><path fill="#ffffff" d="M 17.257812 13.929688 C 17.015625 13.691406 16.628906 13.691406 16.386719 13.929688 C 16.148438 14.171875 16.148438 14.558594 16.386719 14.800781 L 20.050781 18.460938 L 16.386719 22.121094 C 16.148438 22.363281 16.148438 22.75 16.386719 22.992188 C 16.628906 23.230469 17.015625 23.230469 17.257812 22.992188 L 21.351562 18.894531 C 21.59375 18.65625 21.59375 18.265625 21.351562 18.027344 Z M 17.257812 13.929688 " fill-opacity="1" fill-rule="nonzero"/><g clip-path="url(#0313745e34)"><path fill="#ffffff" d="M 18.460938 9.65625 C 13.597656 9.65625 9.65625 13.597656 9.65625 18.460938 C 9.65625 23.324219 13.597656 27.269531 18.460938 27.269531 C 23.324219 27.269531 27.269531 23.324219 27.269531 18.460938 C 27.269531 13.597656 23.324219 9.65625 18.460938 9.65625 Z M 10.882812 18.460938 C 10.882812 14.277344 14.277344 10.882812 18.460938 10.882812 C 22.644531 10.882812 26.039062 14.277344 26.039062 18.460938 C 26.039062 22.644531 22.644531 26.039062 18.460938 26.039062 C 14.277344 26.039062 10.882812 22.644531 10.882812 18.460938 Z M 10.882812 18.460938 " fill-opacity="1" fill-rule="evenodd"/></g></svg>