<svg xmlns="http://www.w3.org/2000/svg" xmlns:xlink="http://www.w3.org/1999/xlink" width="50" zoomAndPan="magnify" viewBox="0 0 37.5 37.499999" height="50" preserveAspectRatio="xMidYMid meet" version="1.0"><defs><clipPath id="8c19dcf7ee"><path d="M 9.695312 9.695312 L 27.308594 9.695312 L 27.308594 27.457031 L 9.695312 27.457031 Z M 9.695312 9.695312 " clip-rule="nonzero"/></clipPath></defs><path fill="#ffffff" d="M 19.746094 13.929688 C 19.988281 13.691406 20.375 13.691406 20.617188 13.929688 C 20.855469 14.171875 20.855469 14.558594 20.617188 14.800781 L 16.953125 18.460938 L 20.617188 22.121094 C 20.855469 22.363281 20.855469 22.75 20.617188 22.992188 C 20.375 23.230469 19.988281 23.230469 19.746094 22.992188 L 15.652344 18.894531 C 15.410156 18.65625 15.410156 18.265625 15.652344 18.027344 Z M 19.746094 13.929688 " fill-opacity="1" fill-rule="nonzero"/><g clip-path="url(#8c19dcf7ee)"><path fill="#ffffff" d="M 18.542969 9.65625 C 23.40625 9.65625 27.347656 13.597656 27.347656 18.460938 C 27.347656 23.324219 23.40625 27.269531 18.542969 27.269531 C 13.679688 27.269531 9.738281 23.324219 9.738281 18.460938 C 9.738281 13.597656 13.679688 9.65625 18.542969 9.65625 Z M 26.121094 18.460938 C 26.121094 14.277344 22.726562 10.882812 18.542969 10.882812 C 14.359375 10.882812 10.964844 14.277344 10.964844 18.460938 C 10.964844 22.644531 14.359375 26.039062 18.542969 26.039062 C 22.726562 26.039062 26.121094 22.644531 26.121094 18.460938 Z M 26.121094 18.460938 " fill-opacity="1" fill-rule="evenodd"/></g></svg>