<svg xmlns="http://www.w3.org/2000/svg" xmlns:xlink="http://www.w3.org/1999/xlink" width="50" zoomAndPan="magnify" viewBox="0 0 37.5 37.499999" height="50" preserveAspectRatio="xMidYMid meet" version="1.0"><defs><clipPath id="fd46606b87"><path d="M 5.238281 5.308594 L 20 5.308594 L 20 30 L 5.238281 30 Z M 5.238281 5.308594 " clip-rule="nonzero"/></clipPath><clipPath id="e0b23c75ce"><path d="M 16 8 L 31.886719 8 L 31.886719 33.433594 L 16 33.433594 Z M 16 8 " clip-rule="nonzero"/></clipPath></defs><g clip-path="url(#fd46606b87)"><path fill="#ffffff" d="M 13.171875 14.269531 C 13.328125 14.351562 13.496094 14.394531 13.671875 14.394531 C 13.875 14.394531 14.078125 14.339844 14.253906 14.21875 L 19.410156 10.769531 C 19.703125 10.574219 19.878906 10.246094 19.878906 9.894531 C 19.878906 9.542969 19.703125 9.214844 19.410156 9.019531 L 14.253906 5.570312 C 13.929688 5.355469 13.515625 5.332031 13.171875 5.515625 C 12.828125 5.699219 12.621094 6.054688 12.621094 6.441406 L 12.621094 8.835938 L 8.234375 8.835938 C 6.578125 8.84375 5.238281 10.183594 5.238281 11.835938 L 5.238281 26.824219 C 5.238281 28.472656 6.578125 29.816406 8.234375 29.816406 L 13.59375 29.816406 C 14.175781 29.816406 14.644531 29.347656 14.644531 28.765625 C 14.644531 28.183594 14.175781 27.714844 13.59375 27.714844 L 8.234375 27.714844 C 7.742188 27.714844 7.34375 27.316406 7.34375 26.824219 L 7.34375 11.835938 C 7.34375 11.34375 7.742188 10.945312 8.234375 10.945312 L 12.621094 10.945312 L 12.621094 13.34375 C 12.621094 13.726562 12.828125 14.085938 13.171875 14.269531 Z M 14.722656 8.417969 L 16.9375 9.894531 L 14.722656 11.375 Z M 14.722656 8.417969 " fill-opacity="1" fill-rule="nonzero"/></g><g clip-path="url(#e0b23c75ce)"><path fill="#ffffff" d="M 28.765625 8.84375 L 22.179688 8.84375 C 21.597656 8.84375 21.125 9.3125 21.125 9.894531 C 21.125 10.476562 21.597656 10.945312 22.179688 10.945312 L 28.765625 10.945312 C 29.257812 10.945312 29.65625 11.34375 29.65625 11.835938 L 29.65625 26.824219 C 29.65625 27.316406 29.257812 27.714844 28.765625 27.714844 L 23.347656 27.714844 L 23.347656 25.320312 C 23.347656 24.933594 23.136719 24.578125 22.792969 24.394531 C 22.453125 24.210938 22.039062 24.234375 21.714844 24.449219 L 16.558594 27.898438 C 16.261719 28.09375 16.089844 28.421875 16.089844 28.773438 C 16.089844 29.125 16.261719 29.453125 16.558594 29.648438 L 21.714844 33.097656 C 21.890625 33.21875 22.09375 33.273438 22.296875 33.273438 C 22.464844 33.273438 22.640625 33.230469 22.792969 33.148438 C 23.136719 32.964844 23.347656 32.605469 23.347656 32.222656 L 23.347656 29.824219 L 28.765625 29.824219 C 30.414062 29.824219 31.757812 28.488281 31.757812 26.832031 L 31.757812 11.835938 C 31.757812 10.183594 30.414062 8.84375 28.765625 8.84375 Z M 21.246094 30.238281 L 19.03125 28.761719 L 21.246094 27.28125 Z M 21.246094 30.238281 " fill-opacity="1" fill-rule="nonzero"/></g></svg>