<svg xmlns="http://www.w3.org/2000/svg" xmlns:xlink="http://www.w3.org/1999/xlink" width="50" zoomAndPan="magnify" viewBox="0 0 37.5 37.499999" height="50" preserveAspectRatio="xMidYMid meet" version="1.0"><defs><clipPath id="e02f716fae"><path d="M 4.390625 4.390625 L 32.515625 4.390625 L 32.515625 32.515625 L 4.390625 32.515625 Z M 4.390625 4.390625 " clip-rule="nonzero"/></clipPath></defs><g clip-path="url(#e02f716fae)"><path fill="#ffffff" d="M 6.292969 18.433594 C 6.292969 11.726562 11.726562 6.292969 18.433594 6.292969 C 25.136719 6.292969 30.574219 11.726562 30.574219 18.433594 C 30.574219 19.929688 30.304688 21.359375 29.808594 22.683594 C 29.617188 23.191406 29.878906 23.757812 30.386719 23.949219 C 30.894531 24.140625 31.464844 23.878906 31.652344 23.371094 C 32.226562 21.832031 32.542969 20.167969 32.542969 18.433594 C 32.542969 10.640625 26.226562 4.324219 18.433594 4.324219 C 10.640625 4.324219 4.324219 10.640625 4.324219 18.433594 C 4.324219 26.226562 10.640625 32.542969 18.433594 32.542969 C 19.152344 32.542969 19.859375 32.488281 20.546875 32.382812 C 21.085938 32.304688 21.457031 31.800781 21.375 31.265625 C 21.292969 30.726562 20.792969 30.355469 20.253906 30.4375 C 19.660156 30.527344 19.054688 30.574219 18.433594 30.574219 C 11.726562 30.574219 6.292969 25.136719 6.292969 18.433594 Z M 6.292969 18.433594 " fill-opacity="1" fill-rule="nonzero"/></g><path fill="#ffffff" d="M 25.804688 25.722656 C 25.417969 25.339844 24.796875 25.339844 24.410156 25.722656 C 24.027344 26.109375 24.027344 26.730469 24.410156 27.117188 L 25.570312 28.277344 L 24.410156 29.4375 C 24.027344 29.820312 24.027344 30.445312 24.410156 30.828125 C 24.796875 31.214844 25.417969 31.214844 25.804688 30.828125 L 26.964844 29.667969 L 28.125 30.828125 C 28.507812 31.214844 29.132812 31.214844 29.515625 30.828125 C 29.898438 30.445312 29.898438 29.820312 29.515625 29.4375 L 28.355469 28.277344 L 29.515625 27.117188 C 29.898438 26.730469 29.898438 26.109375 29.515625 25.722656 C 29.132812 25.339844 28.507812 25.339844 28.125 25.722656 L 26.964844 26.882812 Z M 25.804688 25.722656 " fill-opacity="1" fill-rule="nonzero"/><path fill="#ffffff" d="M 15.324219 13.640625 C 15.632812 13.464844 16.011719 13.46875 16.316406 13.652344 L 22.875 17.589844 C 23.171875 17.765625 23.355469 18.085938 23.355469 18.433594 C 23.355469 18.777344 23.171875 19.097656 22.875 19.277344 L 16.316406 23.214844 C 16.011719 23.398438 15.632812 23.402344 15.324219 23.226562 C 15.015625 23.050781 14.824219 22.726562 14.824219 22.371094 L 14.824219 14.496094 C 14.824219 14.140625 15.015625 13.8125 15.324219 13.640625 Z M 15.324219 13.640625 " fill-opacity="1" fill-rule="nonzero"/></svg>