<svg xmlns="http://www.w3.org/2000/svg" xmlns:xlink="http://www.w3.org/1999/xlink" width="50" zoomAndPan="magnify" viewBox="0 0 37.5 37.499999" height="50" preserveAspectRatio="xMidYMid meet" version="1.0"><defs><clipPath id="b7c2c8441e"><path d="M 7.066406 7.066406 L 29.929688 7.066406 L 29.929688 30 L 7.066406 30 Z M 7.066406 7.066406 " clip-rule="nonzero"/></clipPath></defs><path fill="#ffffff" d="M 20.117188 12.566406 C 20.425781 12.253906 20.933594 12.253906 21.242188 12.566406 C 21.554688 12.878906 21.554688 13.382812 21.242188 13.695312 L 16.492188 18.445312 L 21.242188 23.199219 C 21.554688 23.511719 21.554688 24.015625 21.242188 24.328125 C 20.933594 24.640625 20.425781 24.640625 20.117188 24.328125 L 14.800781 19.011719 C 14.488281 18.699219 14.488281 18.195312 14.800781 17.882812 Z M 20.117188 12.566406 " fill-opacity="1" fill-rule="nonzero"/><g clip-path="url(#b7c2c8441e)"><path fill="#ffffff" d="M 18.554688 7.015625 C 24.867188 7.015625 29.984375 12.132812 29.984375 18.445312 C 29.984375 24.761719 24.867188 29.878906 18.554688 29.878906 C 12.238281 29.878906 7.121094 24.761719 7.121094 18.445312 C 7.121094 12.132812 12.238281 7.015625 18.554688 7.015625 Z M 28.390625 18.445312 C 28.390625 13.015625 23.984375 8.609375 18.554688 8.609375 C 13.121094 8.609375 8.714844 13.015625 8.714844 18.445312 C 8.714844 23.878906 13.121094 28.28125 18.554688 28.28125 C 23.984375 28.28125 28.390625 23.878906 28.390625 18.445312 Z M 28.390625 18.445312 " fill-opacity="1" fill-rule="evenodd"/></g></svg>