<svg xmlns="http://www.w3.org/2000/svg" xmlns:xlink="http://www.w3.org/1999/xlink" width="50" zoomAndPan="magnify" viewBox="0 0 37.5 37.499999" height="50" preserveAspectRatio="xMidYMid meet" version="1.0"><defs><clipPath id="06c18ed7e5"><path d="M 7.066406 7.066406 L 30 7.066406 L 30 30 L 7.066406 30 Z M 7.066406 7.066406 " clip-rule="nonzero"/></clipPath></defs><path fill="#ffffff" d="M 16.882812 12.566406 C 16.574219 12.253906 16.066406 12.253906 15.757812 12.566406 C 15.445312 12.878906 15.445312 13.382812 15.757812 13.695312 L 20.507812 18.445312 L 15.757812 23.199219 C 15.445312 23.511719 15.445312 24.015625 15.757812 24.328125 C 16.066406 24.640625 16.574219 24.640625 16.882812 24.328125 L 22.199219 19.011719 C 22.511719 18.699219 22.511719 18.195312 22.199219 17.882812 Z M 16.882812 12.566406 " fill-opacity="1" fill-rule="nonzero"/><g clip-path="url(#06c18ed7e5)"><path fill="#ffffff" d="M 18.445312 7.015625 C 12.132812 7.015625 7.015625 12.132812 7.015625 18.445312 C 7.015625 24.761719 12.132812 29.878906 18.445312 29.878906 C 24.761719 29.878906 29.878906 24.761719 29.878906 18.445312 C 29.878906 12.132812 24.761719 7.015625 18.445312 7.015625 Z M 8.609375 18.445312 C 8.609375 13.015625 13.015625 8.609375 18.445312 8.609375 C 23.878906 8.609375 28.28125 13.015625 28.28125 18.445312 C 28.28125 23.878906 23.878906 28.28125 18.445312 28.28125 C 13.015625 28.28125 8.609375 23.878906 8.609375 18.445312 Z M 8.609375 18.445312 " fill-opacity="1" fill-rule="evenodd"/></g></svg>